<svg width="170" height="25" viewBox="0 0 170 25" fill="none" xmlns="http://www.w3.org/2000/svg">
<path d="M20.4801 5.93619C21.0968 5.31948 21.4822 4.44582 21.4822 3.49507C21.4822 1.56788 19.9405 0.026123 18.0133 0.026123C16.8056 0.026123 15.7263 0.642819 15.1096 1.59357C14.9555 1.74774 1.15675 18.7585 1.02827 18.964C0.411568 19.5807 0.026123 20.4544 0.026123 21.4051C0.026123 23.3323 1.56788 24.8741 3.49507 24.8741C4.70278 24.8741 5.78201 24.2574 6.39871 23.3066C6.52719 23.1268 20.3259 6.11606 20.4801 5.93619Z" fill="#575DFB"/>
<path d="M28.4452 14.0042C29.0619 13.3875 29.4474 12.5139 29.4474 11.5631C29.4474 9.63593 27.9056 8.09418 25.9784 8.09418C24.7707 8.09418 23.6915 8.71088 23.0748 9.66163C22.9206 9.81581 15.6487 18.758 15.5202 18.9636C14.9035 19.5803 14.5181 20.4539 14.5181 21.4047C14.5181 23.3319 16.0598 24.8736 17.987 24.8736C19.1947 24.8736 20.274 24.2569 20.8907 23.3062C21.0705 23.1263 28.3168 14.1841 28.4452 14.0042Z" fill="#575DFB"/>
<path d="M35.9999 3.46895C35.9999 5.39614 34.4582 6.9379 32.531 6.9379C30.6038 6.9379 29.062 5.39614 29.062 3.46895C29.062 1.54176 30.6038 0 32.531 0C34.4582 0.0256959 35.9999 1.56745 35.9999 3.46895Z" fill="#575DFB"/>
<path d="M6.9379 3.46895C6.9379 5.39614 5.39614 6.9379 3.46895 6.9379C1.54176 6.9379 0 5.39614 0 3.46895C0 1.54176 1.54176 0 3.46895 0C5.39614 0.0256959 6.9379 1.56745 6.9379 3.46895Z" fill="#575DFB"/>
<path d="M48.017 20H45.3807L49.3977 8.36364H52.5682L56.5795 20H53.9432L51.0284 11.0227H50.9375L48.017 20ZM47.8523 15.4261H54.0795V17.3466H47.8523V15.4261ZM57.8041 20V8.36364H62.395C63.2776 8.36364 64.0295 8.5322 64.6507 8.86932C65.2719 9.20265 65.7454 9.66667 66.0712 10.2614C66.4007 10.8523 66.5655 11.5341 66.5655 12.3068C66.5655 13.0795 66.3988 13.7614 66.0655 14.3523C65.7321 14.9432 65.2492 15.4034 64.6166 15.733C63.9878 16.0625 63.2265 16.2273 62.3325 16.2273H59.4064V14.2557H61.9348C62.4083 14.2557 62.7984 14.1742 63.1053 14.0114C63.4159 13.8447 63.6469 13.6155 63.7984 13.3239C63.9537 13.0284 64.0314 12.6894 64.0314 12.3068C64.0314 11.9205 63.9537 11.5833 63.7984 11.2955C63.6469 11.0038 63.4159 10.7784 63.1053 10.6193C62.7946 10.4564 62.4007 10.375 61.9234 10.375H60.2643V20H57.8041ZM67.9875 20V8.36364H72.5784C73.461 8.36364 74.2129 8.5322 74.8341 8.86932C75.4553 9.20265 75.9288 9.66667 76.2545 10.2614C76.5841 10.8523 76.7489 11.5341 76.7489 12.3068C76.7489 13.0795 76.5822 13.7614 76.2489 14.3523C75.9155 14.9432 75.4326 15.4034 74.8 15.733C74.1712 16.0625 73.4098 16.2273 72.5159 16.2273H69.5898V14.2557H72.1182C72.5917 14.2557 72.9818 14.1742 73.2886 14.0114C73.5992 13.8447 73.8303 13.6155 73.9818 13.3239C74.1371 13.0284 74.2148 12.6894 74.2148 12.3068C74.2148 11.9205 74.1371 11.5833 73.9818 11.2955C73.8303 11.0038 73.5992 10.7784 73.2886 10.6193C72.978 10.4564 72.5841 10.375 72.1068 10.375H70.4477V20H67.9875ZM81.2548 10.392V8.36364H90.8116V10.392H87.2491V20H84.8173V10.392H81.2548ZM94.8757 20.1705C93.978 20.1705 93.2052 19.9886 92.5575 19.625C91.9136 19.2576 91.4173 18.7386 91.0689 18.0682C90.7204 17.3939 90.5461 16.5966 90.5461 15.6761C90.5461 14.7784 90.7204 13.9905 91.0689 13.3125C91.4173 12.6345 91.9079 12.1061 92.5405 11.7273C93.1768 11.3485 93.923 11.1591 94.7791 11.1591C95.3548 11.1591 95.8908 11.2519 96.387 11.4375C96.887 11.6193 97.3227 11.8939 97.6939 12.2614C98.0689 12.6288 98.3605 13.0909 98.5689 13.6477C98.7772 14.2008 98.8814 14.8485 98.8814 15.5909V16.2557H91.512V14.7557H96.603C96.603 14.4072 96.5272 14.0985 96.3757 13.8295C96.2242 13.5606 96.0139 13.3504 95.745 13.1989C95.4798 13.0436 95.1711 12.9659 94.8189 12.9659C94.4514 12.9659 94.1257 13.0511 93.8416 13.2216C93.5613 13.3883 93.3416 13.6136 93.1825 13.8977C93.0234 14.178 92.942 14.4905 92.9382 14.8352V16.2614C92.9382 16.6932 93.0177 17.0663 93.1768 17.3807C93.3397 17.6951 93.5689 17.9375 93.8643 18.108C94.1598 18.2784 94.5102 18.3636 94.9155 18.3636C95.1844 18.3636 95.4306 18.3258 95.6541 18.25C95.8776 18.1742 96.0689 18.0606 96.228 17.9091C96.387 17.7576 96.5083 17.572 96.5916 17.3523L98.8302 17.5C98.7166 18.0379 98.4836 18.5076 98.1314 18.9091C97.7829 19.3068 97.3321 19.6174 96.7791 19.8409C96.2298 20.0606 95.5954 20.1705 94.8757 20.1705ZM100.285 20V11.2727H102.592V12.8125H102.694C102.876 12.3011 103.179 11.8977 103.603 11.6023C104.027 11.3068 104.535 11.1591 105.126 11.1591C105.724 11.1591 106.234 11.3087 106.654 11.608C107.075 11.9034 107.355 12.3049 107.495 12.8125H107.586C107.764 12.3125 108.086 11.9129 108.552 11.6136C109.022 11.3106 109.577 11.1591 110.217 11.1591C111.031 11.1591 111.692 11.4186 112.2 11.9375C112.711 12.4527 112.967 13.1837 112.967 14.1307V20H110.552V14.608C110.552 14.1231 110.423 13.7595 110.166 13.517C109.908 13.2746 109.586 13.1534 109.2 13.1534C108.76 13.1534 108.417 13.2936 108.171 13.5739C107.925 13.8504 107.802 14.2159 107.802 14.6705V20H105.455V14.5568C105.455 14.1288 105.332 13.7879 105.086 13.5341C104.844 13.2803 104.524 13.1534 104.126 13.1534C103.857 13.1534 103.614 13.2216 103.399 13.358C103.186 13.4905 103.018 13.678 102.893 13.9205C102.768 14.1591 102.705 14.4394 102.705 14.7614V20H100.285ZM114.703 23.2727V11.2727H117.089V12.7386H117.197C117.303 12.5038 117.456 12.2652 117.657 12.0227C117.862 11.7765 118.127 11.572 118.453 11.4091C118.782 11.2424 119.191 11.1591 119.68 11.1591C120.316 11.1591 120.903 11.3258 121.441 11.6591C121.979 11.9886 122.409 12.4867 122.731 13.1534C123.053 13.8163 123.214 14.6477 123.214 15.6477C123.214 16.6212 123.057 17.4432 122.742 18.1136C122.432 18.7803 122.008 19.286 121.47 19.6307C120.936 19.9716 120.337 20.142 119.674 20.142C119.205 20.142 118.805 20.0644 118.475 19.9091C118.15 19.7538 117.883 19.5587 117.674 19.3239C117.466 19.0852 117.307 18.8447 117.197 18.6023H117.123V23.2727H114.703ZM117.072 15.6364C117.072 16.1553 117.144 16.608 117.288 16.9943C117.432 17.3807 117.64 17.6818 117.913 17.8977C118.186 18.1098 118.517 18.2159 118.907 18.2159C119.301 18.2159 119.634 18.108 119.907 17.892C120.18 17.6723 120.386 17.3693 120.527 16.983C120.67 16.5928 120.742 16.1439 120.742 15.6364C120.742 15.1326 120.672 14.6894 120.532 14.3068C120.392 13.9242 120.186 13.625 119.913 13.4091C119.64 13.1932 119.305 13.0852 118.907 13.0852C118.513 13.0852 118.18 13.1894 117.907 13.3977C117.638 13.6061 117.432 13.9015 117.288 14.2841C117.144 14.6667 117.072 15.1174 117.072 15.6364ZM127.072 8.36364V20H124.652V8.36364H127.072ZM131.324 20.1648C130.767 20.1648 130.271 20.0682 129.835 19.875C129.399 19.678 129.055 19.3883 128.801 19.0057C128.551 18.6193 128.426 18.1383 128.426 17.5625C128.426 17.0777 128.515 16.6705 128.693 16.3409C128.871 16.0114 129.113 15.7462 129.42 15.5455C129.727 15.3447 130.076 15.1932 130.466 15.0909C130.86 14.9886 131.273 14.9167 131.704 14.875C132.212 14.822 132.621 14.7727 132.932 14.7273C133.242 14.678 133.468 14.6061 133.608 14.5114C133.748 14.4167 133.818 14.2765 133.818 14.0909V14.0568C133.818 13.697 133.704 13.4186 133.477 13.2216C133.254 13.0246 132.935 12.9261 132.523 12.9261C132.087 12.9261 131.74 13.0227 131.483 13.2159C131.225 13.4053 131.055 13.6439 130.971 13.9318L128.733 13.75C128.846 13.2197 129.07 12.7614 129.403 12.375C129.737 11.9848 130.166 11.6856 130.693 11.4773C131.223 11.2652 131.837 11.1591 132.534 11.1591C133.019 11.1591 133.483 11.2159 133.926 11.3295C134.373 11.4432 134.769 11.6193 135.113 11.858C135.462 12.0966 135.737 12.4034 135.937 12.7784C136.138 13.1496 136.238 13.5947 136.238 14.1136V20H133.943V18.7898H133.875C133.735 19.0625 133.547 19.303 133.312 19.5114C133.077 19.7159 132.795 19.8769 132.466 19.9943C132.136 20.108 131.755 20.1648 131.324 20.1648ZM132.017 18.4943C132.373 18.4943 132.687 18.4242 132.96 18.2841C133.233 18.1402 133.447 17.947 133.602 17.7045C133.757 17.4621 133.835 17.1875 133.835 16.8807V15.9545C133.759 16.0038 133.655 16.0492 133.523 16.0909C133.394 16.1288 133.248 16.1648 133.085 16.1989C132.922 16.2292 132.759 16.2576 132.596 16.2841C132.434 16.3068 132.286 16.3277 132.153 16.3466C131.869 16.3883 131.621 16.4545 131.409 16.5455C131.197 16.6364 131.032 16.7595 130.915 16.9148C130.797 17.0663 130.738 17.2557 130.738 17.483C130.738 17.8125 130.858 18.0644 131.096 18.2386C131.339 18.4091 131.646 18.4943 132.017 18.4943ZM142.582 11.2727V13.0909H137.327V11.2727H142.582ZM138.52 9.18182H140.94V17.3182C140.94 17.5417 140.974 17.7159 141.043 17.8409C141.111 17.9621 141.205 18.0473 141.327 18.0966C141.452 18.1458 141.596 18.1705 141.758 18.1705C141.872 18.1705 141.986 18.161 142.099 18.142C142.213 18.1193 142.3 18.1023 142.361 18.0909L142.741 19.892C142.62 19.9299 142.45 19.9735 142.23 20.0227C142.01 20.0758 141.743 20.108 141.429 20.1193C140.846 20.142 140.334 20.0644 139.895 19.8864C139.459 19.7083 139.12 19.4318 138.878 19.0568C138.635 18.6818 138.516 18.2083 138.52 17.6364V9.18182ZM147.867 20.1705C146.969 20.1705 146.196 19.9886 145.548 19.625C144.904 19.2576 144.408 18.7386 144.06 18.0682C143.711 17.3939 143.537 16.5966 143.537 15.6761C143.537 14.7784 143.711 13.9905 144.06 13.3125C144.408 12.6345 144.899 12.1061 145.531 11.7273C146.168 11.3485 146.914 11.1591 147.77 11.1591C148.346 11.1591 148.882 11.2519 149.378 11.4375C149.878 11.6193 150.314 11.8939 150.685 12.2614C151.06 12.6288 151.351 13.0909 151.56 13.6477C151.768 14.2008 151.872 14.8485 151.872 15.5909V16.2557H144.503V14.7557H149.594C149.594 14.4072 149.518 14.0985 149.367 13.8295C149.215 13.5606 149.005 13.3504 148.736 13.1989C148.471 13.0436 148.162 12.9659 147.81 12.9659C147.442 12.9659 147.117 13.0511 146.832 13.2216C146.552 13.3883 146.332 13.6136 146.173 13.8977C146.014 14.178 145.933 14.4905 145.929 14.8352V16.2614C145.929 16.6932 146.009 17.0663 146.168 17.3807C146.331 17.6951 146.56 17.9375 146.855 18.108C147.151 18.2784 147.501 18.3636 147.906 18.3636C148.175 18.3636 148.421 18.3258 148.645 18.25C148.868 18.1742 149.06 18.0606 149.219 17.9091C149.378 17.7576 149.499 17.572 149.582 17.3523L151.821 17.5C151.707 18.0379 151.475 18.5076 151.122 18.9091C150.774 19.3068 150.323 19.6174 149.77 19.8409C149.221 20.0606 148.586 20.1705 147.867 20.1705Z" fill="#575DFB"/>
</svg>
